<?xml version="1.0" encoding="iso-8859-1"?>
<!-- Generator: Adobe Illustrator 19.0.0, SVG Export Plug-In . SVG Version: 6.00 Build 0)  -->
<!-- version="1.1" id="Layer_1" xmlns="http://www.w3.org/2000/svg" xmlns:xlink="http://www.w3.org/1999/xlink" -->
<svg class="bp" viewBox="0 0 360.9 269.5" width="530" height="396" role="img" aria-labelledby="bp-title">
  <title id="bp-title">Blooming Plant</title>

  <defs>	
		<g>
			<clipPath id="bp__stalk-shape--01-a">
				<path d="M147.21,249.08c-0.13-58.96-10.21-147.64-79.05-164.63c-14.41-3.56-36.55-6.12-47.69,6.53c9.25-12.26,29.22-12.71,42.89-11.11c16.11,1.89,31.14,8.56,43.41,19.17c28.18,24.38,39.95,63.66,45.76,99.19c2.74,16.77,4.13,33.7,4.68,50.67C153.88,248.96,150.55,249.02,147.21,249.08z"></path>
			</clipPath>
			<clipPath id="bp__stalk-shape--01-b">
				<path d="M138.98,171.07c-6.85-10.84-18.06-19.87-30.33-23.74c-13.01-4.1-25.9-1.51-38.08,3.94c12.54-7.14,26.01-10.81,40.35-7.41c13.4,3.18,26.15,11.82,34.55,22.7C143.31,168.06,141.15,169.57,138.98,171.07z"></path>
			</clipPath>
			<clipPath id="bp__stalk-shape--01-c">
				<path d="M126.35,134.81c-2.14-11.51,0.14-24.23,4.77-34.85c4.59-10.53,11.85-20.03,20.8-27.24c4.81-3.87,9.85-7.21,15.17-10.33c-9.2,6.37-17.65,13.56-24.08,22.82c-6.3,9.07-10.37,19.55-11.44,30.57c-0.56,5.78-0.5,11.94,1,17.59C130.48,133.84,128.41,134.33,126.35,134.81z"></path>
			</clipPath>
			<clipPath id="bp__stalk-shape--02-a">
				<path d="M147.21,249.08c-0.14-40.62,5.69-82.64,24.2-119.25c9.67-19.12,23.08-36.74,40.88-48.95c18.69-12.83,41.4-18.8,63.96-18.36c22.18,0.43,43.29,7.21,63.01,16.98c-0.06,0.12-0.12,0.25-0.18,0.37C302.49,63.1,259.5,57.9,223.31,78.93c-38.32,22.27-55.89,67.58-62.67,109.29c-3.26,20.07-4.11,40.37-3.43,60.67C153.88,248.96,150.55,249.02,147.21,249.08z"></path>
			</clipPath>
			<clipPath id="bp__stalk-shape--02-b">
				<path d="M167,139.4c3.05-13.8,0.05-29.48-5.73-42.15c-6.58-14.43-17.36-25.56-29.98-34.87c13.69,8.64,25.53,19.4,33.3,33.8c7.09,13.14,11.12,29.51,8.99,44.45C171.39,140.21,169.19,139.81,167,139.4z"></path>
			</clipPath>
			<clipPath id="bp__stalk-shape--03-a">
				<path d="M147.21,248.9c0.82-26.09,7.7-51.63,24.3-72.27c13.14-16.32,31-27.54,49.22-37.43c24.29-13.19,53.35-25.76,69.15-49.69c12.58-19.06,11.32-45.13-5.71-61.27c-20.99-19.89-53.88-17.42-74.46,1.6c-0.12-0.12-0.23-0.25-0.35-0.37c17.44-16.95,44.1-22.21,65.98-10.57c20.47,10.88,30.68,34.21,25.23,56.67c-6.8,28.01-35.18,45.67-58.47,59.06c-20.94,12.04-43.12,23.13-59.53,41.31c-18.2,20.16-25.2,46.54-25.36,73.14C153.88,249.02,150.55,248.96,147.21,248.9z"></path>
			</clipPath>
			<clipPath id="bp__stalk-shape--03-b">
				<path d="M158.88,197.17c19.16-26.48,53.28-30.91,82.53-22.2c-27.78-5.64-60.1,0.13-75.89,26.47C163.31,200.02,161.09,198.59,158.88,197.17z"></path>
			</clipPath>
			<path id="bp__flower-shape" d="M171.12,63.96c-0.02,0.05-0.04,0.11-0.06,0.16c2.45,1.05,5.61,2.82,6.4,3.61c1.27,1.27,1.17,3.42-0.22,4.81c-1.39,1.38-3.54,1.48-4.8,0.22c-0.79-0.79-2.57-3.95-3.62-6.4c-0.05,0.02-0.1,0.04-0.16,0.06c1,2.47,1.98,5.97,1.98,7.08c0,1.79-1.59,3.24-3.56,3.24c-1.96,0-3.55-1.45-3.55-3.24c0-1.11,0.98-4.61,1.97-7.08c-0.06-0.02-0.11-0.04-0.16-0.06c-1.05,2.45-2.82,5.61-3.61,6.4c-1.27,1.26-3.42,1.16-4.8-0.22c-1.39-1.39-1.49-3.54-0.23-4.81c0.79-0.79,3.95-2.56,6.4-3.61c-0.02-0.05-0.04-0.11-0.06-0.16c-2.47,0.99-5.96,1.97-7.08,1.97c-1.79,0-3.24-1.59-3.24-3.55c0-1.96,1.45-3.55,3.24-3.55c1.12,0,4.61,0.98,7.08,1.97c0.02-0.05,0.04-0.11,0.06-0.16c-2.45-1.05-5.61-2.82-6.4-3.61c-1.26-1.27-1.16-3.42,0.23-4.81c1.38-1.39,3.53-1.49,4.8-0.22c0.79,0.79,2.56,3.96,3.61,6.4c0.05-0.02,0.1-0.04,0.16-0.06c-0.99-2.48-1.97-5.97-1.97-7.09c0-1.78,1.59-3.23,3.55-3.23c1.97,0,3.56,1.45,3.56,3.23c0,1.12-0.98,4.61-1.98,7.09c0.06,0.02,0.11,0.04,0.16,0.06c1.05-2.44,2.83-5.61,3.62-6.4c1.26-1.27,3.41-1.17,4.8,0.22c1.39,1.39,1.49,3.54,0.22,4.81c-0.79,0.79-3.95,2.56-6.4,3.61c0.02,0.05,0.04,0.11,0.06,0.16c2.47-0.99,5.97-1.97,7.09-1.97c1.79,0,3.24,1.59,3.24,3.55c0,1.96-1.45,3.55-3.24,3.55C177.09,65.93,173.59,64.95,171.12,63.96z"></path>
		</g> 
	</defs>

 	<g>
  <path class="bp__stalk bp__stroke--green" data-n="01-a" clip-path="url(#bp__stalk-shape--01-a)" d="M152.21,248.99C151.23,175.5,131.32,96.52,69.9,82.84c-37.38-8.32-49.43,8.14-49.43,8.14"></path>
  <path class="bp__stalk bp__stroke--green" data-n="01-b" clip-path="url(#bp__stalk-shape--01-b)" d="M142.23,168.82c0,0-28.22-41.32-71.65-17.54"></path>
  <path class="bp__stalk bp__stroke--green-lighter" data-n="02-a" clip-path="url(#bp__stalk-shape--02-a)" d="M152.21,248.99c-0.55-22.47,1.07-45.07,5.49-67.13c4.07-20.28,10.54-40.29,20.59-58.43c9.06-16.36,21.21-31.2,36.74-41.8c18.08-12.34,40.13-18.2,61.92-17.93c19.69,0.25,39.14,5.35,57,13.49c1.75,0.8,3.49,1.63,5.21,2.49"></path>
  <path class="bp__stalk bp__stroke--green-lighter" data-n="02-b" clip-path="url(#bp__stalk-shape--02-b)" d="M170.29,140.01c0,0,9.06-46.47-39-77.63"></path>
  <path class="bp__stalk bp__stroke--green" data-n="01-c" clip-path="url(#bp__stalk-shape--01-c)" d="M129.45,134.08c0,0-10.42-42.56,37.64-71.71"></path>
  <path class="bp__stalk bp__stroke--green-light" data-n="03-a" clip-path="url(#bp__stalk-shape--03-a)" d="M152.21,248.99c0-28.02,8.33-54.97,27.52-75.82c22.39-24.31,53.95-35.09,80.8-53.24c17.5-11.83,35.64-27.29,39.07-49.34c3.04-19.55-4.69-37.93-21.46-48.71c-18.74-12.05-42.87-11.18-61.03,1.56c-2.68,1.88-5.2,3.96-7.57,6.22"></path>
  <path class="bp__stalk bp__stroke--green-light" data-n="03-b" clip-path="url(#bp__stalk-shape--03-b)" d="M162.2,199.3c0,0,24.79-39.37,79.21-24.34"></path>
  <path class="bp__ground bp__fill--beige" d="M16.61,265.5c69.72-22.51,145.18-24.43,217-12.54c18.07,2.99,36.12,7.08,53.6,12.54c-34.05-5.91-68.51-10.18-103.03-12c-37.89-2-75.65-0.43-113.34,3.94C52.69,259.55,34.59,262.19,16.61,265.5z"></path>
  <path class="bp__flower bp__flower--01-a bp__fill--blue" d="M171.43,62.38c0,2.4-1.94,4.34-4.34,4.34c-2.4,0-4.34-1.94-4.34-4.34s1.94-4.34,4.34-4.34C169.48,58.03,171.43,59.98,171.43,62.38z"></path>
  <path class="bp__flower bp__flower--b bp__flower--01-b bp__fill--orange" d="M171.43,62.38c0,2.4-1.94,4.34-4.34,4.34c-2.4,0-4.34-1.94-4.34-4.34s1.94-4.34,4.34-4.34C169.48,58.03,171.43,59.98,171.43,62.38z"></path>
  <use href="#bp__flower-shape" 
		class="bp__flower bp__flower--02-a bp__fill--orange" />
  <path 
	class="bp__flower bp__flower--b bp__flower--02-b bp__fill--blue" 
	d="M171.43,62.38c0,2.4-1.94,4.34-4.34,4.34c-2.4,0-4.34-1.94-4.34-4.34s1.94-4.34,4.34-4.34C169.48,58.03,171.43,59.98,171.43,62.38z"></path>
  <path 
		class="bp__flower bp__flower--03-a bp__fill--orange" 
		d="M171.43,62.38c0,2.4-1.94,4.34-4.34,4.34c-2.4,0-4.34-1.94-4.34-4.34s1.94-4.34,4.34-4.34C169.48,58.03,171.43,59.98,171.43,62.38z"></path>
  <path class="bp__flower bp__flower--b bp__flower--03-b bp__fill--blue" d="M171.43,62.38c0,2.4-1.94,4.34-4.34,4.34c-2.4,0-4.34-1.94-4.34-4.34s1.94-4.34,4.34-4.34C169.48,58.03,171.43,59.98,171.43,62.38z"></path>
  <path class="bp__flower bp__flower--04-a bp__fill--blue" d="M171.43,62.38c0,2.4-1.94,4.34-4.34,4.34c-2.4,0-4.34-1.94-4.34-4.34s1.94-4.34,4.34-4.34C169.48,58.03,171.43,59.98,171.43,62.38z"></path>
  <path class="bp__flower bp__flower--b bp__flower--04-b bp__fill--orange" d="M171.43,62.38c0,2.4-1.94,4.34-4.34,4.34c-2.4,0-4.34-1.94-4.34-4.34s1.94-4.34,4.34-4.34C169.48,58.03,171.43,59.98,171.43,62.38z"></path>
  <path class="bp__flower bp__flower--05-a bp__fill--orange" d="M171.43,62.38c0,2.4-1.94,4.34-4.34,4.34c-2.4,0-4.34-1.94-4.34-4.34s1.94-4.34,4.34-4.34C169.48,58.03,171.43,59.98,171.43,62.38z"></path>
  <path class="bp__flower bp__flower--b bp__flower--05-b bp__fill--blue" d="M171.43,62.38c0,2.4-1.94,4.34-4.34,4.34c-2.4,0-4.34-1.94-4.34-4.34s1.94-4.34,4.34-4.34C169.48,58.03,171.43,59.98,171.43,62.38z"></path>
  <path class="bp__flower bp__flower--06-a bp__fill--blue" d="M171.43,62.38c0,2.4-1.94,4.34-4.34,4.34c-2.4,0-4.34-1.94-4.34-4.34s1.94-4.34,4.34-4.34C169.48,58.03,171.43,59.98,171.43,62.38z"></path>
  <path class="bp__flower bp__flower--b bp__flower--06-b bp__fill--orange" d="M171.43,62.38c0,2.4-1.94,4.34-4.34,4.34c-2.4,0-4.34-1.94-4.34-4.34s1.94-4.34,4.34-4.34C169.48,58.03,171.43,59.98,171.43,62.38z"></path>
  <path class="bp__flower bp__flower--07-a bp__fill--green" d="M171.43,62.38c0,2.4-1.94,4.34-4.34,4.34c-2.4,0-4.34-1.94-4.34-4.34s1.94-4.34,4.34-4.34C169.48,58.03,171.43,59.98,171.43,62.38z"></path>
  <path class="bp__flower bp__flower--b bp__flower--07-b bp__fill--orange" d="M171.43,62.38c0,2.4-1.94,4.34-4.34,4.34c-2.4,0-4.34-1.94-4.34-4.34s1.94-4.34,4.34-4.34C169.48,58.03,171.43,59.98,171.43,62.38z"></path>
 	</g>

</svg>